<svg id="Layer_2" data-name="Layer 2" xmlns="http://www.w3.org/2000/svg" xmlns:xlink="http://www.w3.org/1999/xlink" viewBox="0 0 465.98 465.98"><defs><style>.cls-1,.cls-3{fill:none;}.cls-2{clip-path:url(#clip-path);}.cls-3{stroke:#fff;stroke-miterlimit:10;}</style><clipPath id="clip-path" transform="translate(215.51 230.31)"><path class="cls-1" d="M172.13,71.33c0,.31,0,.62,0,.93v.07a20.38,20.38,0,0,1-2.47,9.31h0a13.64,13.64,0,0,1-8.67,6.7,11.61,11.61,0,0,1-1.2.26l-.18,0h0a16.2,16.2,0,0,1-2.66.21h-.25c-4-.06-9.47-1.86-14.52-4.41a3.74,3.74,0,0,0-.51-.22l0,0a4.89,4.89,0,0,0-2-.31h0a5.31,5.31,0,0,0-4.49,2.95s0,0,0,0a4.83,4.83,0,0,0-.46,1.42,5.43,5.43,0,0,0-.08.92V94.7l0,18.58v4.24l0,10.82v7.9H134l-11.46,0H112.14l-16.36,0H87.52a5.32,5.32,0,0,0-5.29,4.77v.07a5.07,5.07,0,0,0,.55,2.81,47,47,0,0,1,3.72,9.62.43.43,0,0,1,0,0c.15.58.28,1.16.38,1.73a19.79,19.79,0,0,1,.35,3.36,17.08,17.08,0,0,1-.32,3.35,13.89,13.89,0,0,1-.44,1.66A13.34,13.34,0,0,1,82,170.19a13.67,13.67,0,0,1-1.94,1.3,15.66,15.66,0,0,1-2.26,1.08,20.25,20.25,0,0,1-4.15,1.12,24.27,24.27,0,0,1-3.35.29h-.79c-8.19-.07-15-4-16.77-11.35a0,0,0,0,1,0,0,16,16,0,0,1-.44-3.82,23.14,23.14,0,0,1,.64-5A47.32,47.32,0,0,1,56.44,144a5.34,5.34,0,0,0,.52-2.87h0a5.25,5.25,0,0,0-4.23-4.66s0,0,0,0a4.74,4.74,0,0,0-1-.1h-.53L14,136.42H5v-1L4.94,89.38a5.31,5.31,0,0,1,5-5.32,5.15,5.15,0,0,1,2.61.56c5,2.54,10.47,4.34,14.5,4.4h.27c9.9,0,15.23-7.85,15.22-17.51S37.2,54,27.3,54.06h-.23c-4,.06-9.49,1.74-14.54,4.21a5.3,5.3,0,0,1-7.65-4.71L4.81,6.87,51,6.8h.53a5.29,5.29,0,0,1,4.72,7.64c-2.5,5.14-4.18,10.71-4.17,14.77,0,9.81,7.7,15.13,17.23,15.21h.28c9.65,0,17.48-5.37,17.46-15.27,0-4.06-1.84-9.62-4.46-14.76a5.3,5.3,0,0,1,4.74-7.66l46.51-.07h.54V8.12l.07,45.26a5.3,5.3,0,0,0,7.65,4.7c5-2.46,10.49-4.14,14.53-4.21h.24C166.76,53.85,172.11,61.67,172.13,71.33Z"/></clipPath></defs><title>rocket1</title><g class="cls-2"><image width="3334" height="3334" transform="scale(0.14)" xlink:href="../../../rocket52.jpg"/></g><path class="cls-3" d="M172.13,71.33c0,.31,0,.62,0,.93v.07a20.38,20.38,0,0,1-2.47,9.31h0a13.64,13.64,0,0,1-8.67,6.7,11.61,11.61,0,0,1-1.2.26l-.18,0h0a16.2,16.2,0,0,1-2.66.21h-.25c-4-.06-9.47-1.86-14.52-4.41a3.74,3.74,0,0,0-.51-.22l0,0a4.89,4.89,0,0,0-2-.31h0a5.31,5.31,0,0,0-4.49,2.95s0,0,0,0a4.83,4.83,0,0,0-.46,1.42,5.43,5.43,0,0,0-.08.92V94.7l0,18.58v4.24l0,10.82v7.9H134l-11.46,0H112.14l-16.36,0H87.52a5.32,5.32,0,0,0-5.29,4.77v.07a5.07,5.07,0,0,0,.55,2.81,47,47,0,0,1,3.72,9.62.43.43,0,0,1,0,0c.15.58.28,1.16.38,1.73a19.79,19.79,0,0,1,.35,3.36,17.08,17.08,0,0,1-.32,3.35,13.89,13.89,0,0,1-.44,1.66A13.34,13.34,0,0,1,82,170.19a13.67,13.67,0,0,1-1.94,1.3,15.66,15.66,0,0,1-2.26,1.08,20.25,20.25,0,0,1-4.15,1.12,24.27,24.27,0,0,1-3.35.29h-.79c-8.19-.07-15-4-16.77-11.35a0,0,0,0,1,0,0,16,16,0,0,1-.44-3.82,23.14,23.14,0,0,1,.64-5A47.32,47.32,0,0,1,56.44,144a5.34,5.34,0,0,0,.52-2.87h0a5.25,5.25,0,0,0-4.23-4.66s0,0,0,0a4.74,4.74,0,0,0-1-.1h-.53L14,136.42H5v-1L4.94,89.38a5.31,5.31,0,0,1,5-5.32,5.15,5.15,0,0,1,2.61.56c5,2.54,10.47,4.34,14.5,4.4h.27c9.9,0,15.23-7.85,15.22-17.51S37.2,54,27.3,54.06h-.23c-4,.06-9.49,1.74-14.54,4.21a5.3,5.3,0,0,1-7.65-4.71L4.81,6.87,51,6.8h.53a5.29,5.29,0,0,1,4.72,7.64c-2.5,5.14-4.18,10.71-4.17,14.77,0,9.81,7.7,15.13,17.23,15.21h.28c9.65,0,17.48-5.37,17.46-15.27,0-4.06-1.84-9.62-4.46-14.76a5.3,5.3,0,0,1,4.74-7.66l46.51-.07h.54V8.12l.07,45.26a5.3,5.3,0,0,0,7.65,4.7c5-2.46,10.49-4.14,14.53-4.21h.24C166.76,53.85,172.11,61.67,172.13,71.33Z" transform="translate(215.51 230.31)"/></svg>